<mxfile host="app.diagrams.net" modified="2023-04-04T08:00:15.676Z" agent="Mozilla/5.0 (Windows NT 10.0; Win64; x64) AppleWebKit/537.36 (KHTML, like Gecko) Chrome/111.0.0.0 Safari/537.36 Edg/111.0.1661.44" etag="pByET-9fObP9iuvTs0OW" version="21.1.4" type="device">
  <diagram name="Страница 1" id="NU7g9lcSSY_IW0F8KQR_">
    <mxGraphModel dx="2024" dy="692" grid="1" gridSize="10" guides="1" tooltips="1" connect="1" arrows="1" fold="1" page="1" pageScale="1" pageWidth="827" pageHeight="1169" math="0" shadow="0">
      <root>
        <mxCell id="0" />
        <mxCell id="1" parent="0" />
        <mxCell id="ri9s6liII1WkbLCru7eR-4" style="edgeStyle=orthogonalEdgeStyle;rounded=0;orthogonalLoop=1;jettySize=auto;html=1;exitX=0.5;exitY=1;exitDx=0;exitDy=0;entryX=0.5;entryY=0;entryDx=0;entryDy=0;" edge="1" parent="1" source="ri9s6liII1WkbLCru7eR-5" target="ri9s6liII1WkbLCru7eR-7">
          <mxGeometry relative="1" as="geometry" />
        </mxCell>
        <mxCell id="ri9s6liII1WkbLCru7eR-5" value="START" style="rounded=1;whiteSpace=wrap;html=1;" vertex="1" parent="1">
          <mxGeometry x="-523" y="20" width="120" height="40" as="geometry" />
        </mxCell>
        <mxCell id="ri9s6liII1WkbLCru7eR-6" style="edgeStyle=orthogonalEdgeStyle;rounded=0;orthogonalLoop=1;jettySize=auto;html=1;exitX=0.5;exitY=1;exitDx=0;exitDy=0;entryX=0.5;entryY=0;entryDx=0;entryDy=0;" edge="1" parent="1" source="ri9s6liII1WkbLCru7eR-7" target="ri9s6liII1WkbLCru7eR-9">
          <mxGeometry relative="1" as="geometry" />
        </mxCell>
        <mxCell id="ri9s6liII1WkbLCru7eR-7" value="array_input[...]" style="shape=parallelogram;perimeter=parallelogramPerimeter;whiteSpace=wrap;html=1;fixedSize=1;" vertex="1" parent="1">
          <mxGeometry x="-520" y="80" width="120" height="40" as="geometry" />
        </mxCell>
        <mxCell id="ri9s6liII1WkbLCru7eR-8" style="edgeStyle=orthogonalEdgeStyle;rounded=0;orthogonalLoop=1;jettySize=auto;html=1;exitX=0.5;exitY=1;exitDx=0;exitDy=0;entryX=0.5;entryY=0;entryDx=0;entryDy=0;" edge="1" parent="1" source="ri9s6liII1WkbLCru7eR-9" target="ri9s6liII1WkbLCru7eR-13">
          <mxGeometry relative="1" as="geometry" />
        </mxCell>
        <mxCell id="ri9s6liII1WkbLCru7eR-9" value="size = array_input.length()&lt;br&gt;index = 0&lt;br&gt;array_output=[]" style="rounded=0;whiteSpace=wrap;html=1;" vertex="1" parent="1">
          <mxGeometry x="-540" y="140" width="160" height="50" as="geometry" />
        </mxCell>
        <mxCell id="ri9s6liII1WkbLCru7eR-10" style="edgeStyle=orthogonalEdgeStyle;rounded=0;orthogonalLoop=1;jettySize=auto;html=1;exitX=0.5;exitY=1;exitDx=0;exitDy=0;entryX=0.5;entryY=0;entryDx=0;entryDy=0;" edge="1" parent="1" source="ri9s6liII1WkbLCru7eR-13" target="ri9s6liII1WkbLCru7eR-20">
          <mxGeometry relative="1" as="geometry" />
        </mxCell>
        <mxCell id="ri9s6liII1WkbLCru7eR-12" style="edgeStyle=orthogonalEdgeStyle;rounded=0;orthogonalLoop=1;jettySize=auto;html=1;exitX=1;exitY=0.5;exitDx=0;exitDy=0;entryX=0;entryY=0.5;entryDx=0;entryDy=0;" edge="1" parent="1" source="ri9s6liII1WkbLCru7eR-13" target="ri9s6liII1WkbLCru7eR-33">
          <mxGeometry relative="1" as="geometry" />
        </mxCell>
        <mxCell id="ri9s6liII1WkbLCru7eR-13" value="index &amp;lt; size" style="rhombus;whiteSpace=wrap;html=1;" vertex="1" parent="1">
          <mxGeometry x="-520" y="210" width="120" height="40" as="geometry" />
        </mxCell>
        <mxCell id="ri9s6liII1WkbLCru7eR-14" style="edgeStyle=orthogonalEdgeStyle;rounded=0;orthogonalLoop=1;jettySize=auto;html=1;exitX=0.5;exitY=1;exitDx=0;exitDy=0;entryX=0.5;entryY=0;entryDx=0;entryDy=0;" edge="1" parent="1" source="ri9s6liII1WkbLCru7eR-20" target="ri9s6liII1WkbLCru7eR-22">
          <mxGeometry relative="1" as="geometry" />
        </mxCell>
        <mxCell id="ri9s6liII1WkbLCru7eR-15" style="edgeStyle=orthogonalEdgeStyle;rounded=0;orthogonalLoop=1;jettySize=auto;html=1;exitX=0;exitY=0.5;exitDx=0;exitDy=0;" edge="1" parent="1" source="ri9s6liII1WkbLCru7eR-20">
          <mxGeometry relative="1" as="geometry">
            <mxPoint x="-460" y="471" as="targetPoint" />
            <Array as="points">
              <mxPoint x="-610" y="310" />
              <mxPoint x="-610" y="440" />
              <mxPoint x="-460" y="440" />
            </Array>
          </mxGeometry>
        </mxCell>
        <mxCell id="ri9s6liII1WkbLCru7eR-16" value="NO" style="edgeLabel;html=1;align=center;verticalAlign=middle;resizable=0;points=[];" vertex="1" connectable="0" parent="ri9s6liII1WkbLCru7eR-15">
          <mxGeometry x="0.5833" relative="1" as="geometry">
            <mxPoint x="-102" y="-130" as="offset" />
          </mxGeometry>
        </mxCell>
        <mxCell id="ri9s6liII1WkbLCru7eR-17" value="YES" style="edgeLabel;html=1;align=center;verticalAlign=middle;resizable=0;points=[];" vertex="1" connectable="0" parent="ri9s6liII1WkbLCru7eR-15">
          <mxGeometry x="0.5833" relative="1" as="geometry">
            <mxPoint x="78" y="-121" as="offset" />
          </mxGeometry>
        </mxCell>
        <mxCell id="ri9s6liII1WkbLCru7eR-18" value="YES" style="edgeLabel;html=1;align=center;verticalAlign=middle;resizable=0;points=[];" vertex="1" connectable="0" parent="ri9s6liII1WkbLCru7eR-15">
          <mxGeometry x="0.5833" relative="1" as="geometry">
            <mxPoint x="38" y="-170" as="offset" />
          </mxGeometry>
        </mxCell>
        <mxCell id="ri9s6liII1WkbLCru7eR-19" value="NO" style="edgeLabel;html=1;align=center;verticalAlign=middle;resizable=0;points=[];" vertex="1" connectable="0" parent="ri9s6liII1WkbLCru7eR-15">
          <mxGeometry x="0.5833" relative="1" as="geometry">
            <mxPoint x="158" y="-210" as="offset" />
          </mxGeometry>
        </mxCell>
        <mxCell id="ri9s6liII1WkbLCru7eR-37" value="YES" style="edgeLabel;html=1;align=center;verticalAlign=middle;resizable=0;points=[];" vertex="1" connectable="0" parent="ri9s6liII1WkbLCru7eR-15">
          <mxGeometry x="0.5833" relative="1" as="geometry">
            <mxPoint x="38" y="-90" as="offset" />
          </mxGeometry>
        </mxCell>
        <mxCell id="ri9s6liII1WkbLCru7eR-20" value="array_input[index].length()&amp;lt;4" style="rhombus;whiteSpace=wrap;html=1;" vertex="1" parent="1">
          <mxGeometry x="-587.5" y="290" width="255" height="40" as="geometry" />
        </mxCell>
        <mxCell id="ri9s6liII1WkbLCru7eR-36" style="edgeStyle=orthogonalEdgeStyle;rounded=0;orthogonalLoop=1;jettySize=auto;html=1;exitX=0.5;exitY=1;exitDx=0;exitDy=0;entryX=0.5;entryY=0;entryDx=0;entryDy=0;" edge="1" parent="1" source="ri9s6liII1WkbLCru7eR-22" target="ri9s6liII1WkbLCru7eR-31">
          <mxGeometry relative="1" as="geometry" />
        </mxCell>
        <mxCell id="ri9s6liII1WkbLCru7eR-22" value="array_output.add(array_input(index))" style="rounded=0;whiteSpace=wrap;html=1;" vertex="1" parent="1">
          <mxGeometry x="-570" y="370" width="220" height="50" as="geometry" />
        </mxCell>
        <mxCell id="ri9s6liII1WkbLCru7eR-30" style="edgeStyle=orthogonalEdgeStyle;rounded=0;orthogonalLoop=1;jettySize=auto;html=1;exitX=0;exitY=0.5;exitDx=0;exitDy=0;entryX=0;entryY=0.5;entryDx=0;entryDy=0;" edge="1" parent="1" source="ri9s6liII1WkbLCru7eR-31" target="ri9s6liII1WkbLCru7eR-13">
          <mxGeometry relative="1" as="geometry">
            <Array as="points">
              <mxPoint x="-460" y="490" />
              <mxPoint x="-460" y="530" />
              <mxPoint x="-630" y="530" />
              <mxPoint x="-630" y="230" />
            </Array>
          </mxGeometry>
        </mxCell>
        <mxCell id="ri9s6liII1WkbLCru7eR-31" value="index = index + 1" style="rounded=0;whiteSpace=wrap;html=1;" vertex="1" parent="1">
          <mxGeometry x="-520" y="470" width="120" height="40" as="geometry" />
        </mxCell>
        <mxCell id="ri9s6liII1WkbLCru7eR-38" style="edgeStyle=orthogonalEdgeStyle;rounded=0;orthogonalLoop=1;jettySize=auto;html=1;entryX=0.5;entryY=0;entryDx=0;entryDy=0;" edge="1" parent="1" source="ri9s6liII1WkbLCru7eR-33" target="ri9s6liII1WkbLCru7eR-34">
          <mxGeometry relative="1" as="geometry" />
        </mxCell>
        <mxCell id="ri9s6liII1WkbLCru7eR-33" value="array_output" style="shape=document;whiteSpace=wrap;html=1;boundedLbl=1;" vertex="1" parent="1">
          <mxGeometry x="-270" y="210" width="120" height="40" as="geometry" />
        </mxCell>
        <mxCell id="ri9s6liII1WkbLCru7eR-34" value="FINISH" style="ellipse;whiteSpace=wrap;html=1;" vertex="1" parent="1">
          <mxGeometry x="-270" y="290" width="120" height="39" as="geometry" />
        </mxCell>
      </root>
    </mxGraphModel>
  </diagram>
</mxfile>
